<svg id="Capa_1" enable-background="new 0 0 512 512" height="512" viewBox="0 0 512 512" width="512" xmlns="http://www.w3.org/2000/svg" xmlns:xlink="http://www.w3.org/1999/xlink"><radialGradient id="SVGID_1_" cx="432.167" cy="3489.247" gradientTransform="matrix(.931 0 0 .112 -147.994 108.044)" gradientUnits="userSpaceOnUse" r="120.04"><stop offset="0" stop-color="#bebebe"/><stop offset=".2748" stop-color="#dfdfdf"/><stop offset=".4962" stop-color="#f6f6f6"/><stop offset=".888" stop-color="#fff"/></radialGradient><radialGradient id="SVGID_2_" cx="249.032" cy="487.002" gradientTransform="matrix(1 0 0 .644 0 173.578)" gradientUnits="userSpaceOnUse" r="29.642"><stop offset="0" stop-color="#9b9b9b"/><stop offset=".2314" stop-color="#959595"/><stop offset=".541" stop-color="#848484"/><stop offset=".5854" stop-color="#818181"/><stop offset="1" stop-color="#454045"/></radialGradient><radialGradient id="SVGID_3_" cx="240.726" cy="270.363" gradientTransform="matrix(0 -1 .265 0 169.056 511.089)" gradientUnits="userSpaceOnUse" r="278.855"><stop offset=".0132" stop-color="#bebebe"/><stop offset=".6064" stop-color="#9b9b9b"/><stop offset=".7013" stop-color="#979797"/><stop offset=".7998" stop-color="#8a8a8a"/><stop offset=".8999" stop-color="#767676"/><stop offset="1" stop-color="#595959"/></radialGradient><radialGradient id="SVGID_4_" cx="201.403" cy="122.221" gradientTransform="matrix(1 0 0 .965 0 4.23)" gradientUnits="userSpaceOnUse" r="99.241"><stop offset="0" stop-color="#f6e266"/><stop offset=".1542" stop-color="#f5e060"/><stop offset=".3607" stop-color="#f4db4f"/><stop offset=".5962" stop-color="#f1d333"/><stop offset=".5974" stop-color="#f1d333"/><stop offset="1" stop-color="#e7a52e"/></radialGradient><linearGradient id="lg1"><stop offset=".0132" stop-color="#fffbe4"/><stop offset=".6064" stop-color="#f9efaf"/><stop offset=".7207" stop-color="#f9eeab"/><stop offset=".8394" stop-color="#f8ec9e"/><stop offset=".9597" stop-color="#f7e98a"/><stop offset="1" stop-color="#f6e781"/></linearGradient><radialGradient id="SVGID_5_" cx="163.145" cy="76.666" gradientTransform="matrix(1 0 0 .965 0 2.654)" gradientUnits="userSpaceOnUse" r="129.953" xlink:href="#lg1"/><radialGradient id="SVGID_6_" cx="237.846" cy="5.631" gradientTransform="matrix(1 0 0 .965 0 .195)" gradientUnits="userSpaceOnUse" r="82.037" xlink:href="#lg1"/><radialGradient id="SVGID_7_" cx="309.277" cy="369.038" gradientTransform="matrix(0 -1 .265 0 211.449 678.314)" gradientUnits="userSpaceOnUse" r="272.808"><stop offset="0" stop-color="#aaa"/><stop offset=".5664" stop-color="#818181"/><stop offset="1" stop-color="#454045"/></radialGradient><radialGradient id="SVGID_8_" cx="360.658" cy="105.18" gradientTransform="matrix(1 0 0 .965 0 3.64)" gradientUnits="userSpaceOnUse" r="201.629"><stop offset="0" stop-color="#f6e266"/><stop offset=".4602" stop-color="#f4dd45"/><stop offset=".5834" stop-color="#f2d340"/><stop offset=".7914" stop-color="#ecb934"/><stop offset="1" stop-color="#e49824"/></radialGradient><g><path d="m256 512c64.322 0 116.465-6.388 116.465-14.269h-232.93c0 7.881 52.143 14.269 116.465 14.269z" fill="url(#SVGID_1_)"/><path d="m268.943 482.178-26.259 5.861c0 5.352 4.339 9.691 9.691 9.691h16.568c-.526.001.504-9.318 0-15.552z" fill="url(#SVGID_2_)"/><path d="m259.252 140.552h-16.568v347.488h24.712c-4.617-57.13-8.144-347.488-8.144-347.488z" fill="url(#SVGID_3_)"/><path d="m251.93 108.994-54.453 11.157c.49 1.402.532 2.958.05 4.44l-19.009 58.502c-1.609 4.952 2.413 9.259 6.837 9.121h25.473l-.009-.001c-4.024-.121 35.04-72.247 41.111-83.219z" fill="url(#SVGID_4_)"/><path d="m247.351 118.47-72.142-50.368h-25.887c-6.729 0-9.527 8.611-4.083 12.566l49.765 36.157c1.173.852 2.018 2.022 2.474 3.326h48.941c.6-1.085.932-1.681.932-1.681z" fill="url(#SVGID_5_)"/><path d="m268.943 0h-25.887c-2.783 0-5.567 1.6-6.606 4.8l-19.009 58.502c-.93 2.862-3.597 4.8-6.606 4.8l38.563 10.313z" fill="url(#SVGID_6_)"/><path d="m268.943 497.731c-5.352 0-9.691-4.339-9.691-9.691v-347.488h19.383v347.488c0 5.352-4.339 9.691-9.692 9.691z" fill="url(#SVGID_7_)"/><path d="m275.55 4.8 19.009 58.502c.93 2.862 3.597 4.8 6.606 4.8h61.513c6.729 0 9.527 8.611 4.083 12.566l-49.765 36.157c-2.435 1.769-3.453 4.904-2.523 7.766l19.009 58.502c2.079 6.4-5.245 11.722-10.689 7.766l-49.765-36.157c-2.435-1.769-5.731-1.769-8.166 0l-49.765 36.157c-5.444 3.955-12.769-1.367-10.689-7.766l19.009-58.502c.93-2.862-.089-5.997-2.523-7.766l-49.765-36.157c-5.444-3.955-2.646-12.566 4.083-12.566h61.513c3.009 0 5.676-1.938 6.606-4.8l19.006-58.502c2.079-6.4 11.133-6.4 13.213 0z" fill="url(#SVGID_8_)"/></g></svg>